<mxfile host="app.diagrams.net" modified="2024-04-25T21:23:43.326Z" agent="Mozilla/5.0 (Windows NT 10.0; Win64; x64) AppleWebKit/537.36 (KHTML, like Gecko) Chrome/121.0.0.0 Safari/537.36 OPR/107.0.0.0" etag="TGw-NNF0ibAsRX90vjnk" version="24.3.0" type="device">
  <diagram name="PÃ¡gina-1" id="WLVFuY_e8BcBC2ZeJKmS">
    <mxGraphModel dx="1639" dy="892" grid="1" gridSize="10" guides="1" tooltips="1" connect="1" arrows="1" fold="1" page="1" pageScale="1" pageWidth="827" pageHeight="1169" math="0" shadow="0">
      <root>
        <mxCell id="0" />
        <mxCell id="1" parent="0" />
        <mxCell id="dqNCdkGDEH7ixvxxbSTL-1" value="view: View" style="shape=umlLifeline;perimeter=lifelinePerimeter;whiteSpace=wrap;html=1;container=1;collapsible=0;recursiveResize=0;outlineConnect=0;rounded=1;shadow=0;comic=0;labelBackgroundColor=none;strokeWidth=1;fontFamily=Verdana;fontSize=12;align=center;" parent="1" vertex="1">
          <mxGeometry x="280" y="80" width="100" height="640" as="geometry" />
        </mxCell>
        <mxCell id="dqNCdkGDEH7ixvxxbSTL-2" value="" style="html=1;points=[];perimeter=orthogonalPerimeter;rounded=0;shadow=0;comic=0;labelBackgroundColor=none;strokeWidth=1;fontFamily=Verdana;fontSize=12;align=center;" parent="dqNCdkGDEH7ixvxxbSTL-1" vertex="1">
          <mxGeometry x="45" y="100" width="10" height="50" as="geometry" />
        </mxCell>
        <mxCell id="dqNCdkGDEH7ixvxxbSTL-3" value="1" style="html=1;verticalAlign=bottom;endArrow=open;dashed=1;endSize=8;edgeStyle=elbowEdgeStyle;elbow=vertical;curved=0;rounded=0;" parent="dqNCdkGDEH7ixvxxbSTL-1" target="dqNCdkGDEH7ixvxxbSTL-11" edge="1">
          <mxGeometry relative="1" as="geometry">
            <mxPoint x="45" y="139" as="sourcePoint" />
            <mxPoint x="-35" y="139" as="targetPoint" />
          </mxGeometry>
        </mxCell>
        <mxCell id="dqNCdkGDEH7ixvxxbSTL-4" value="" style="html=1;points=[];perimeter=orthogonalPerimeter;rounded=0;shadow=0;comic=0;labelBackgroundColor=none;strokeWidth=1;fontFamily=Verdana;fontSize=12;align=center;" parent="dqNCdkGDEH7ixvxxbSTL-1" vertex="1">
          <mxGeometry x="45" y="170" width="10" height="40" as="geometry" />
        </mxCell>
        <mxCell id="dqNCdkGDEH7ixvxxbSTL-5" value=": Utils" style="shape=umlLifeline;perimeter=lifelinePerimeter;whiteSpace=wrap;html=1;container=1;collapsible=0;recursiveResize=0;outlineConnect=0;rounded=1;shadow=0;comic=0;labelBackgroundColor=none;strokeWidth=1;fontFamily=Verdana;fontSize=12;align=center;" parent="1" vertex="1">
          <mxGeometry x="610" y="80" width="100" height="690" as="geometry" />
        </mxCell>
        <mxCell id="dqNCdkGDEH7ixvxxbSTL-6" value="" style="html=1;points=[];perimeter=orthogonalPerimeter;outlineConnect=0;targetShapes=umlLifeline;portConstraint=eastwest;newEdgeStyle={&quot;edgeStyle&quot;:&quot;elbowEdgeStyle&quot;,&quot;elbow&quot;:&quot;vertical&quot;,&quot;curved&quot;:0,&quot;rounded&quot;:0};" parent="dqNCdkGDEH7ixvxxbSTL-5" vertex="1">
          <mxGeometry x="45" y="300" width="10" height="40" as="geometry" />
        </mxCell>
        <mxCell id="dqNCdkGDEH7ixvxxbSTL-7" value="username" style="html=1;verticalAlign=bottom;endArrow=open;dashed=1;endSize=8;edgeStyle=elbowEdgeStyle;elbow=vertical;curved=0;rounded=0;" parent="dqNCdkGDEH7ixvxxbSTL-5" target="dqNCdkGDEH7ixvxxbSTL-21" edge="1">
          <mxGeometry relative="1" as="geometry">
            <mxPoint x="45" y="330" as="sourcePoint" />
            <mxPoint x="-35" y="330" as="targetPoint" />
          </mxGeometry>
        </mxCell>
        <mxCell id="dqNCdkGDEH7ixvxxbSTL-8" value="" style="html=1;points=[];perimeter=orthogonalPerimeter;outlineConnect=0;targetShapes=umlLifeline;portConstraint=eastwest;newEdgeStyle={&quot;edgeStyle&quot;:&quot;elbowEdgeStyle&quot;,&quot;elbow&quot;:&quot;vertical&quot;,&quot;curved&quot;:0,&quot;rounded&quot;:0};" parent="dqNCdkGDEH7ixvxxbSTL-5" vertex="1">
          <mxGeometry x="45" y="350" width="10" height="40" as="geometry" />
        </mxCell>
        <mxCell id="dqNCdkGDEH7ixvxxbSTL-9" value="model: CompoStore&amp;nbsp;" style="shape=umlLifeline;perimeter=lifelinePerimeter;whiteSpace=wrap;html=1;container=1;collapsible=0;recursiveResize=0;outlineConnect=0;rounded=1;shadow=0;comic=0;labelBackgroundColor=none;strokeWidth=1;fontFamily=Verdana;fontSize=12;align=center;" parent="1" vertex="1">
          <mxGeometry x="760" y="80" width="100" height="690" as="geometry" />
        </mxCell>
        <mxCell id="dqNCdkGDEH7ixvxxbSTL-11" value="controller: Controller" style="shape=umlLifeline;perimeter=lifelinePerimeter;whiteSpace=wrap;html=1;container=1;collapsible=0;recursiveResize=0;outlineConnect=0;rounded=1;shadow=0;comic=0;labelBackgroundColor=none;strokeWidth=1;fontFamily=Verdana;fontSize=12;align=center;" parent="1" vertex="1">
          <mxGeometry x="100" y="80" width="100" height="680" as="geometry" />
        </mxCell>
        <mxCell id="dqNCdkGDEH7ixvxxbSTL-12" value="" style="html=1;points=[];perimeter=orthogonalPerimeter;rounded=0;shadow=0;comic=0;labelBackgroundColor=none;strokeWidth=1;fontFamily=Verdana;fontSize=12;align=center;" parent="dqNCdkGDEH7ixvxxbSTL-11" vertex="1">
          <mxGeometry x="45" y="100" width="10" height="580" as="geometry" />
        </mxCell>
        <mxCell id="dqNCdkGDEH7ixvxxbSTL-13" value="3. insertCredentials()" style="html=1;verticalAlign=bottom;endArrow=block;edgeStyle=elbowEdgeStyle;elbow=vertical;curved=0;rounded=0;" parent="dqNCdkGDEH7ixvxxbSTL-11" target="dqNCdkGDEH7ixvxxbSTL-21" edge="1">
          <mxGeometry width="80" relative="1" as="geometry">
            <mxPoint x="55" y="240" as="sourcePoint" />
            <mxPoint x="135" y="240" as="targetPoint" />
          </mxGeometry>
        </mxCell>
        <mxCell id="dqNCdkGDEH7ixvxxbSTL-16" value="4.Login()" style="html=1;verticalAlign=bottom;endArrow=block;edgeStyle=elbowEdgeStyle;elbow=vertical;curved=0;rounded=0;" parent="dqNCdkGDEH7ixvxxbSTL-11" target="dqNCdkGDEH7ixvxxbSTL-25" edge="1">
          <mxGeometry width="80" relative="1" as="geometry">
            <mxPoint x="55" y="461" as="sourcePoint" />
            <mxPoint x="890" y="461" as="targetPoint" />
            <mxPoint as="offset" />
          </mxGeometry>
        </mxCell>
        <mxCell id="dqNCdkGDEH7ixvxxbSTL-40" value="0" style="html=1;verticalAlign=bottom;endArrow=open;dashed=1;endSize=8;edgeStyle=elbowEdgeStyle;elbow=vertical;curved=0;rounded=0;" parent="dqNCdkGDEH7ixvxxbSTL-11" source="dqNCdkGDEH7ixvxxbSTL-39" edge="1">
          <mxGeometry x="-0.0588" relative="1" as="geometry">
            <mxPoint x="230" y="551" as="sourcePoint" />
            <mxPoint x="55" y="561" as="targetPoint" />
            <mxPoint as="offset" />
            <Array as="points">
              <mxPoint x="190" y="561" />
            </Array>
          </mxGeometry>
        </mxCell>
        <mxCell id="dqNCdkGDEH7ixvxxbSTL-41" value="&lt;div&gt;5. menuEmployee()&lt;/div&gt;" style="html=1;verticalAlign=bottom;endArrow=block;labelBackgroundColor=none;fontFamily=Verdana;fontSize=12;edgeStyle=elbowEdgeStyle;elbow=vertical;entryX=0.5;entryY=0.25;entryDx=0;entryDy=0;entryPerimeter=0;" parent="dqNCdkGDEH7ixvxxbSTL-11" target="dqNCdkGDEH7ixvxxbSTL-39" edge="1">
          <mxGeometry x="0.0014" relative="1" as="geometry">
            <mxPoint x="55" y="531" as="sourcePoint" />
            <mxPoint x="230" y="521" as="targetPoint" />
            <Array as="points">
              <mxPoint x="200" y="531" />
            </Array>
            <mxPoint as="offset" />
          </mxGeometry>
        </mxCell>
        <mxCell id="dqNCdkGDEH7ixvxxbSTL-39" value="" style="html=1;points=[];perimeter=orthogonalPerimeter;rounded=0;shadow=0;comic=0;labelBackgroundColor=none;strokeWidth=1;fontFamily=Verdana;fontSize=12;align=center;" parent="dqNCdkGDEH7ixvxxbSTL-11" vertex="1">
          <mxGeometry x="225" y="521" width="10" height="40" as="geometry" />
        </mxCell>
        <mxCell id="dqNCdkGDEH7ixvxxbSTL-17" value="1. menuBegin()" style="html=1;verticalAlign=bottom;endArrow=block;labelBackgroundColor=none;fontFamily=Verdana;fontSize=12;edgeStyle=elbowEdgeStyle;elbow=vertical;entryX=0.5;entryY=0.043;entryDx=0;entryDy=0;entryPerimeter=0;" parent="1" source="dqNCdkGDEH7ixvxxbSTL-12" target="dqNCdkGDEH7ixvxxbSTL-2" edge="1">
          <mxGeometry relative="1" as="geometry">
            <mxPoint x="220" y="190" as="sourcePoint" />
            <mxPoint x="280" y="190" as="targetPoint" />
            <Array as="points" />
          </mxGeometry>
        </mxCell>
        <mxCell id="dqNCdkGDEH7ixvxxbSTL-18" value="2" style="html=1;verticalAlign=bottom;endArrow=open;dashed=1;endSize=8;edgeStyle=elbowEdgeStyle;elbow=vertical;curved=0;rounded=0;" parent="1" edge="1">
          <mxGeometry relative="1" as="geometry">
            <mxPoint x="325" y="290" as="sourcePoint" />
            <mxPoint x="150" y="290" as="targetPoint" />
            <mxPoint x="1" as="offset" />
          </mxGeometry>
        </mxCell>
        <mxCell id="dqNCdkGDEH7ixvxxbSTL-19" value="2. menuLogin()" style="html=1;verticalAlign=bottom;endArrow=block;labelBackgroundColor=none;fontFamily=Verdana;fontSize=12;edgeStyle=elbowEdgeStyle;elbow=vertical;" parent="1" edge="1">
          <mxGeometry relative="1" as="geometry">
            <mxPoint x="155" y="260" as="sourcePoint" />
            <mxPoint x="325" y="260" as="targetPoint" />
            <Array as="points" />
            <mxPoint as="offset" />
          </mxGeometry>
        </mxCell>
        <mxCell id="dqNCdkGDEH7ixvxxbSTL-20" value="viewLogin: ViewLogin&amp;nbsp;" style="shape=umlLifeline;perimeter=lifelinePerimeter;whiteSpace=wrap;html=1;container=1;collapsible=0;recursiveResize=0;outlineConnect=0;rounded=1;shadow=0;comic=0;labelBackgroundColor=none;strokeWidth=1;fontFamily=Verdana;fontSize=12;align=center;" parent="1" vertex="1">
          <mxGeometry x="410" y="80" width="150" height="690" as="geometry" />
        </mxCell>
        <mxCell id="dqNCdkGDEH7ixvxxbSTL-21" value="" style="html=1;points=[];perimeter=orthogonalPerimeter;outlineConnect=0;targetShapes=umlLifeline;portConstraint=eastwest;newEdgeStyle={&quot;edgeStyle&quot;:&quot;elbowEdgeStyle&quot;,&quot;elbow&quot;:&quot;vertical&quot;,&quot;curved&quot;:0,&quot;rounded&quot;:0};" parent="dqNCdkGDEH7ixvxxbSTL-20" vertex="1">
          <mxGeometry x="70" y="230" width="10" height="200" as="geometry" />
        </mxCell>
        <mxCell id="dqNCdkGDEH7ixvxxbSTL-22" value="3.1.getString()" style="html=1;verticalAlign=bottom;endArrow=block;edgeStyle=elbowEdgeStyle;elbow=vertical;curved=0;rounded=0;" parent="dqNCdkGDEH7ixvxxbSTL-20" target="dqNCdkGDEH7ixvxxbSTL-5" edge="1">
          <mxGeometry x="0.0029" width="80" relative="1" as="geometry">
            <mxPoint x="80" y="310" as="sourcePoint" />
            <mxPoint x="160" y="320" as="targetPoint" />
            <Array as="points">
              <mxPoint x="200" y="310" />
            </Array>
            <mxPoint as="offset" />
          </mxGeometry>
        </mxCell>
        <mxCell id="dqNCdkGDEH7ixvxxbSTL-23" value="&amp;lt;&amp;lt;verify&amp;gt;&amp;gt;" style="html=1;verticalAlign=bottom;endArrow=block;edgeStyle=elbowEdgeStyle;elbow=vertical;curved=0;rounded=0;" parent="dqNCdkGDEH7ixvxxbSTL-20" edge="1">
          <mxGeometry width="80" relative="1" as="geometry">
            <mxPoint x="80" y="420" as="sourcePoint" />
            <mxPoint x="290" y="420" as="targetPoint" />
          </mxGeometry>
        </mxCell>
        <mxCell id="dqNCdkGDEH7ixvxxbSTL-24" value="Employee: Employee" style="shape=umlLifeline;perimeter=lifelinePerimeter;whiteSpace=wrap;html=1;container=1;collapsible=0;recursiveResize=0;outlineConnect=0;rounded=1;shadow=0;comic=0;labelBackgroundColor=none;strokeWidth=1;fontFamily=Verdana;fontSize=12;align=center;" parent="1" vertex="1">
          <mxGeometry x="900" y="80" width="200" height="690" as="geometry" />
        </mxCell>
        <mxCell id="dqNCdkGDEH7ixvxxbSTL-25" value="" style="html=1;points=[];perimeter=orthogonalPerimeter;outlineConnect=0;targetShapes=umlLifeline;portConstraint=eastwest;newEdgeStyle={&quot;edgeStyle&quot;:&quot;elbowEdgeStyle&quot;,&quot;elbow&quot;:&quot;vertical&quot;,&quot;curved&quot;:0,&quot;rounded&quot;:0};" parent="dqNCdkGDEH7ixvxxbSTL-24" vertex="1">
          <mxGeometry x="95" y="451" width="10" height="50" as="geometry" />
        </mxCell>
        <mxCell id="zbgKx6nGsNQsD7OSDAcC-1" value="" style="html=1;points=[];perimeter=orthogonalPerimeter;outlineConnect=0;targetShapes=umlLifeline;portConstraint=eastwest;newEdgeStyle={&quot;edgeStyle&quot;:&quot;elbowEdgeStyle&quot;,&quot;elbow&quot;:&quot;vertical&quot;,&quot;curved&quot;:0,&quot;rounded&quot;:0};" parent="dqNCdkGDEH7ixvxxbSTL-24" vertex="1">
          <mxGeometry x="95" y="570" width="10" height="50" as="geometry" />
        </mxCell>
        <mxCell id="dqNCdkGDEH7ixvxxbSTL-26" value="Employee: Employee" style="html=1;whiteSpace=wrap;" parent="1" vertex="1">
          <mxGeometry x="700" y="480" width="90" height="30" as="geometry" />
        </mxCell>
        <mxCell id="dqNCdkGDEH7ixvxxbSTL-27" value="3.2.getString()" style="html=1;verticalAlign=bottom;endArrow=block;edgeStyle=elbowEdgeStyle;elbow=vertical;curved=0;rounded=0;" parent="1" edge="1">
          <mxGeometry x="0.0029" width="80" relative="1" as="geometry">
            <mxPoint x="490" y="440" as="sourcePoint" />
            <mxPoint x="660" y="440" as="targetPoint" />
            <Array as="points">
              <mxPoint x="610" y="440" />
            </Array>
            <mxPoint as="offset" />
          </mxGeometry>
        </mxCell>
        <mxCell id="dqNCdkGDEH7ixvxxbSTL-28" value="password" style="html=1;verticalAlign=bottom;endArrow=open;dashed=1;endSize=8;edgeStyle=elbowEdgeStyle;elbow=vertical;curved=0;rounded=0;" parent="1" source="dqNCdkGDEH7ixvxxbSTL-8" edge="1">
          <mxGeometry relative="1" as="geometry">
            <mxPoint x="650" y="460" as="sourcePoint" />
            <mxPoint x="490" y="460" as="targetPoint" />
          </mxGeometry>
        </mxCell>
        <mxCell id="dqNCdkGDEH7ixvxxbSTL-29" value="menuEmployee" style="html=1;verticalAlign=bottom;endArrow=open;dashed=1;endSize=8;edgeStyle=elbowEdgeStyle;elbow=vertical;curved=0;rounded=0;" parent="1" source="dqNCdkGDEH7ixvxxbSTL-25" edge="1">
          <mxGeometry x="-0.0047" relative="1" as="geometry">
            <mxPoint x="990" y="572" as="sourcePoint" />
            <mxPoint x="156" y="571" as="targetPoint" />
            <mxPoint as="offset" />
            <Array as="points">
              <mxPoint x="440" y="571" />
              <mxPoint x="290" y="561" />
            </Array>
          </mxGeometry>
        </mxCell>
        <mxCell id="dqNCdkGDEH7ixvxxbSTL-30" value="Employee" style="html=1;verticalAlign=bottom;endArrow=open;dashed=1;endSize=8;edgeStyle=elbowEdgeStyle;elbow=vertical;curved=0;rounded=0;" parent="1" source="dqNCdkGDEH7ixvxxbSTL-20" edge="1">
          <mxGeometry x="0.1199" relative="1" as="geometry">
            <mxPoint x="225" y="510" as="sourcePoint" />
            <mxPoint x="155" y="510" as="targetPoint" />
            <Array as="points">
              <mxPoint x="290" y="510" />
            </Array>
            <mxPoint as="offset" />
          </mxGeometry>
        </mxCell>
        <mxCell id="ia1PPyYH0BDvzd3bstIT-2" value="" style="html=1;points=[];perimeter=orthogonalPerimeter;rounded=0;shadow=0;comic=0;labelBackgroundColor=none;strokeWidth=1;fontFamily=Verdana;fontSize=12;align=center;" parent="1" vertex="1">
          <mxGeometry x="325" y="720" width="10" height="40" as="geometry" />
        </mxCell>
        <mxCell id="ia1PPyYH0BDvzd3bstIT-3" value="6. menuBegin()" style="html=1;verticalAlign=bottom;endArrow=block;labelBackgroundColor=none;fontFamily=Verdana;fontSize=12;edgeStyle=elbowEdgeStyle;elbow=vertical;" parent="1" source="dqNCdkGDEH7ixvxxbSTL-12" target="ia1PPyYH0BDvzd3bstIT-2" edge="1">
          <mxGeometry x="-0.0097" relative="1" as="geometry">
            <mxPoint x="155" y="740" as="sourcePoint" />
            <mxPoint x="325" y="691" as="targetPoint" />
            <Array as="points">
              <mxPoint x="240" y="730" />
            </Array>
            <mxPoint as="offset" />
          </mxGeometry>
        </mxCell>
        <mxCell id="zbgKx6nGsNQsD7OSDAcC-2" value="6. logout()" style="html=1;verticalAlign=bottom;endArrow=block;labelBackgroundColor=none;fontFamily=Verdana;fontSize=12;edgeStyle=elbowEdgeStyle;elbow=vertical;" parent="1" source="dqNCdkGDEH7ixvxxbSTL-12" target="zbgKx6nGsNQsD7OSDAcC-1" edge="1">
          <mxGeometry relative="1" as="geometry">
            <mxPoint x="150" y="700" as="sourcePoint" />
            <mxPoint x="720" y="710" as="targetPoint" />
            <Array as="points">
              <mxPoint x="600" y="660" />
              <mxPoint x="510" y="670" />
              <mxPoint x="295" y="700" />
            </Array>
            <mxPoint as="offset" />
          </mxGeometry>
        </mxCell>
        <mxCell id="zbgKx6nGsNQsD7OSDAcC-3" value="" style="html=1;verticalAlign=bottom;endArrow=open;dashed=1;endSize=8;edgeStyle=elbowEdgeStyle;elbow=vertical;curved=0;rounded=0;" parent="1" source="zbgKx6nGsNQsD7OSDAcC-1" target="dqNCdkGDEH7ixvxxbSTL-12" edge="1">
          <mxGeometry x="-0.0047" relative="1" as="geometry">
            <mxPoint x="959" y="830" as="sourcePoint" />
            <mxPoint x="120" y="830" as="targetPoint" />
            <mxPoint as="offset" />
            <Array as="points">
              <mxPoint x="580" y="690" />
              <mxPoint x="254" y="820" />
            </Array>
          </mxGeometry>
        </mxCell>
        <mxCell id="zbgKx6nGsNQsD7OSDAcC-4" value="" style="html=1;verticalAlign=bottom;endArrow=open;dashed=1;endSize=8;edgeStyle=elbowEdgeStyle;elbow=vertical;curved=0;rounded=0;" parent="1" edge="1">
          <mxGeometry x="-0.0588" relative="1" as="geometry">
            <mxPoint x="325" y="750" as="sourcePoint" />
            <mxPoint x="155" y="750" as="targetPoint" />
            <mxPoint as="offset" />
            <Array as="points">
              <mxPoint x="290" y="750" />
            </Array>
          </mxGeometry>
        </mxCell>
      </root>
    </mxGraphModel>
  </diagram>
</mxfile>
